<svg width="40" height="40" viewBox="0 0 40 40" fill="none" xmlns="http://www.w3.org/2000/svg">
<rect width="40" height="40" fill="#90A0AA"/>
<path d="M22.177 14.3H16.945V29H13.717V14.3H8.485V11.648H22.177V14.3ZM26.5133 29.192C25.4413 29.192 24.6173 28.892 24.0413 28.292C23.4733 27.684 23.1893 26.848 23.1893 25.784V18.908H21.9293C21.7693 18.908 21.6333 18.856 21.5213 18.752C21.4093 18.648 21.3533 18.492 21.3533 18.284V17.108L23.3333 16.784L23.9573 13.424C23.9973 13.264 24.0733 13.14 24.1853 13.052C24.2973 12.964 24.4413 12.92 24.6173 12.92H26.1533V16.796H29.4413V18.908H26.1533V25.58C26.1533 25.964 26.2453 26.264 26.4293 26.48C26.6213 26.696 26.8813 26.804 27.2093 26.804C27.3933 26.804 27.5453 26.784 27.6653 26.744C27.7933 26.696 27.9013 26.648 27.9893 26.6C28.0853 26.552 28.1693 26.508 28.2413 26.468C28.3133 26.42 28.3853 26.396 28.4573 26.396C28.5453 26.396 28.6173 26.42 28.6733 26.468C28.7293 26.508 28.7893 26.572 28.8533 26.66L29.7413 28.1C29.3093 28.46 28.8133 28.732 28.2533 28.916C27.6933 29.1 27.1133 29.192 26.5133 29.192Z" fill="white"/>
</svg>
