<svg width="40" height="40" viewBox="0 0 40 40" fill="none" xmlns="http://www.w3.org/2000/svg">
<rect width="40" height="40" fill="#007A5A"/>
<path d="M8 12C8 10.8954 8.89543 10 10 10H16C17.1046 10 18 10.8954 18 12C18 13.1046 17.1046 14 16 14H10C8.89543 14 8 13.1046 8 12Z" fill="#92E7D0"/>
<path d="M9 16C8.44772 16 8 16.4477 8 17C8 17.5523 8.44772 18 9 18H15C15.5523 18 16 17.5523 16 17C16 16.4477 15.5523 16 15 16H9Z" fill="#92E7D0"/>
<path d="M9 20C8.44772 20 8 20.4477 8 21C8 21.5523 8.44772 22 9 22H17C17.5523 22 18 21.5523 18 21C18 20.4477 17.5523 20 17 20H9Z" fill="#92E7D0"/>
<path d="M9 24C8.44772 24 8 24.4477 8 25C8 25.5523 8.44772 26 9 26H13C13.5523 26 14 25.5523 14 25C14 24.4477 13.5523 24 13 24H9Z" fill="#92E7D0"/>
<path d="M8 29C8 28.4477 8.44772 28 9 28H15C15.5523 28 16 28.4477 16 29C16 29.5523 15.5523 30 15 30H9C8.44772 30 8 29.5523 8 29Z" fill="#92E7D0"/>
<path d="M23 16C22.4477 16 22 16.4477 22 17C22 17.5523 22.4477 18 23 18H29C29.5523 18 30 17.5523 30 17C30 16.4477 29.5523 16 29 16H23Z" fill="#92E7D0"/>
<path d="M22 21C22 20.4477 22.4477 20 23 20H31C31.5523 20 32 20.4477 32 21C32 21.5523 31.5523 22 31 22H23C22.4477 22 22 21.5523 22 21Z" fill="#92E7D0"/>
<path d="M24 10C22.8954 10 22 10.8954 22 12C22 13.1046 22.8954 14 24 14H30C31.1046 14 32 13.1046 32 12C32 10.8954 31.1046 10 30 10H24Z" fill="#92E7D0"/>
<path d="M22 25C22 24.4477 22.4477 24 23 24H27C27.5523 24 28 24.4477 28 25C28 25.5523 27.5523 26 27 26H23C22.4477 26 22 25.5523 22 25Z" fill="#92E7D0"/>
<path d="M23 28C22.4477 28 22 28.4477 22 29C22 29.5523 22.4477 30 23 30H29C29.5523 30 30 29.5523 30 29C30 28.4477 29.5523 28 29 28H23Z" fill="#92E7D0"/>
</svg>
