<svg width="40" height="40" viewBox="0 0 40 40" fill="none" xmlns="http://www.w3.org/2000/svg">
<rect width="40" height="40" fill="#007A5A"/>
<path d="M8 9C8 8.44772 8.44772 8 9 8H27C27.5523 8 28 8.44772 28 9C28 9.55228 27.5523 10 27 10H9C8.44772 10 8 9.55228 8 9Z" fill="#92E7D0"/>
<path d="M9 12C8.44772 12 8 12.4477 8 13C8 13.5523 8.44772 14 9 14H25C25.5523 14 26 13.5523 26 13C26 12.4477 25.5523 12 25 12H9Z" fill="#92E7D0"/>
<path d="M9 16C8.44772 16 8 16.4477 8 17C8 17.5523 8.44772 18 9 18H13C13.5523 18 14 17.5523 14 17C14 16.4477 13.5523 16 13 16H9Z" fill="#92E7D0"/>
<path d="M9 20C8.44772 20 8 20.4477 8 21C8 21.5523 8.44772 22 9 22H13C13.5523 22 14 21.5523 14 21C14 20.4477 13.5523 20 13 20H9Z" fill="#92E7D0"/>
<g filter="url(#filter0_d)">
<path d="M16 20C16 17.7909 17.7909 16 20 16H30C32.2091 16 34 17.7909 34 20V30C34 32.2091 32.2091 34 30 34H20C17.7909 34 16 32.2091 16 30V20Z" fill="white"/>
</g>
<path fill-rule="evenodd" clip-rule="evenodd" d="M16 28.9484C20.1879 30.3853 21.9467 29.2443 24.0379 27.8877C24.7826 27.4046 25.5694 26.8942 26.5231 26.4631C28.7143 25.4725 31.7727 26.2431 34 27.1664V30C34 32.2091 32.2091 34 30 34H20C17.7909 34 16 32.2091 16 30V28.9484Z" fill="#2AD0C6"/>
<circle cx="22" cy="22" r="4" fill="#F9B97E"/>
<defs>
<filter id="filter0_d" x="12" y="12" width="26" height="26" filterUnits="userSpaceOnUse" color-interpolation-filters="sRGB">
<feFlood flood-opacity="0" result="BackgroundImageFix"/>
<feColorMatrix in="SourceAlpha" type="matrix" values="0 0 0 0 0 0 0 0 0 0 0 0 0 0 0 0 0 0 127 0"/>
<feOffset/>
<feGaussianBlur stdDeviation="2"/>
<feColorMatrix type="matrix" values="0 0 0 0 0 0 0 0 0 0 0 0 0 0 0 0 0 0 0.5 0"/>
<feBlend mode="normal" in2="BackgroundImageFix" result="effect1_dropShadow"/>
<feBlend mode="normal" in="SourceGraphic" in2="effect1_dropShadow" result="shape"/>
</filter>
</defs>
</svg>
